<svg xmlns="http://www.w3.org/2000/svg" xmlns:xlink="http://www.w3.org/1999/xlink" width="110" zoomAndPan="magnify" viewBox="0 0 82.5 30.000001" height="40" preserveAspectRatio="xMidYMid meet" version="1.0"><defs><g/><clipPath id="00f6e88034"><path d="M 1.089844 2.921875 L 23.363281 2.921875 L 23.363281 25.195312 L 1.089844 25.195312 Z M 1.089844 2.921875 " clip-rule="nonzero"/></clipPath><clipPath id="6019b7b690"><path d="M 12.226562 2.921875 C 6.074219 2.921875 1.089844 7.90625 1.089844 14.058594 C 1.089844 20.210938 6.074219 25.195312 12.226562 25.195312 C 18.378906 25.195312 23.363281 20.210938 23.363281 14.058594 C 23.363281 7.90625 18.378906 2.921875 12.226562 2.921875 Z M 12.226562 2.921875 " clip-rule="nonzero"/></clipPath><linearGradient x1="-0" gradientTransform="matrix(0.0870118, 0, 0, 0.0870118, 1.088708, 2.920822)" y1="0" x2="255.999999" gradientUnits="userSpaceOnUse" y2="0" id="b86181ee20"><stop stop-opacity="1" stop-color="rgb(0%, 0%, 0%)" offset="0"/><stop stop-opacity="1" stop-color="rgb(0.0808716%, 0.0778198%, 0.312805%)" offset="0.00390625"/><stop stop-opacity="1" stop-color="rgb(0.161743%, 0.15564%, 0.627136%)" offset="0.0078125"/><stop stop-opacity="1" stop-color="rgb(0.242615%, 0.233459%, 0.941467%)" offset="0.0117188"/><stop stop-opacity="1" stop-color="rgb(0.323486%, 0.311279%, 1.255798%)" offset="0.015625"/><stop stop-opacity="1" stop-color="rgb(0.404358%, 0.389099%, 1.568604%)" offset="0.0195312"/><stop stop-opacity="1" stop-color="rgb(0.486755%, 0.468445%, 1.882935%)" offset="0.0234375"/><stop stop-opacity="1" stop-color="rgb(0.567627%, 0.546265%, 2.197266%)" offset="0.0273438"/><stop stop-opacity="1" stop-color="rgb(0.648499%, 0.624084%, 2.511597%)" offset="0.03125"/><stop stop-opacity="1" stop-color="rgb(0.72937%, 0.701904%, 2.825928%)" offset="0.0351562"/><stop stop-opacity="1" stop-color="rgb(0.811768%, 0.779724%, 3.140259%)" offset="0.0390625"/><stop stop-opacity="1" stop-color="rgb(0.892639%, 0.857544%, 3.453064%)" offset="0.0429688"/><stop stop-opacity="1" stop-color="rgb(0.973511%, 0.93689%, 3.767395%)" offset="0.046875"/><stop stop-opacity="1" stop-color="rgb(1.054382%, 1.014709%, 4.081726%)" offset="0.0507812"/><stop stop-opacity="1" stop-color="rgb(1.13678%, 1.092529%, 4.396057%)" offset="0.0546875"/><stop stop-opacity="1" stop-color="rgb(1.217651%, 1.170349%, 4.710388%)" offset="0.0585938"/><stop stop-opacity="1" stop-color="rgb(1.298523%, 1.249695%, 5.024719%)" offset="0.0625"/><stop stop-opacity="1" stop-color="rgb(1.379395%, 1.327515%, 5.337524%)" offset="0.0664062"/><stop stop-opacity="1" stop-color="rgb(1.461792%, 1.405334%, 5.651855%)" offset="0.0703125"/><stop stop-opacity="1" stop-color="rgb(1.542664%, 1.483154%, 5.966187%)" offset="0.0742188"/><stop stop-opacity="1" stop-color="rgb(1.623535%, 1.560974%, 6.280518%)" offset="0.078125"/><stop stop-opacity="1" stop-color="rgb(1.704407%, 1.638794%, 6.594849%)" offset="0.0820313"/><stop stop-opacity="1" stop-color="rgb(1.786804%, 1.71814%, 6.90918%)" offset="0.0859375"/><stop stop-opacity="1" stop-color="rgb(1.867676%, 1.795959%, 7.221985%)" offset="0.0898438"/><stop stop-opacity="1" stop-color="rgb(1.948547%, 1.873779%, 7.536316%)" offset="0.09375"/><stop stop-opacity="1" stop-color="rgb(2.029419%, 1.951599%, 7.850647%)" offset="0.0976562"/><stop stop-opacity="1" stop-color="rgb(2.111816%, 2.030945%, 8.164978%)" offset="0.101562"/><stop stop-opacity="1" stop-color="rgb(2.192688%, 2.108765%, 8.479309%)" offset="0.105469"/><stop stop-opacity="1" stop-color="rgb(2.27356%, 2.186584%, 8.79364%)" offset="0.109375"/><stop stop-opacity="1" stop-color="rgb(2.354431%, 2.264404%, 9.106445%)" offset="0.113281"/><stop stop-opacity="1" stop-color="rgb(2.436829%, 2.342224%, 9.420776%)" offset="0.117188"/><stop stop-opacity="1" stop-color="rgb(2.5177%, 2.420044%, 9.735107%)" offset="0.121094"/><stop stop-opacity="1" stop-color="rgb(2.598572%, 2.49939%, 10.049438%)" offset="0.125"/><stop stop-opacity="1" stop-color="rgb(2.679443%, 2.577209%, 10.36377%)" offset="0.128906"/><stop stop-opacity="1" stop-color="rgb(2.761841%, 2.655029%, 10.678101%)" offset="0.132812"/><stop stop-opacity="1" stop-color="rgb(2.842712%, 2.732849%, 10.990906%)" offset="0.136719"/><stop stop-opacity="1" stop-color="rgb(2.923584%, 2.812195%, 11.305237%)" offset="0.140625"/><stop stop-opacity="1" stop-color="rgb(3.004456%, 2.890015%, 11.619568%)" offset="0.144531"/><stop stop-opacity="1" stop-color="rgb(3.086853%, 2.967834%, 11.933899%)" offset="0.148438"/><stop stop-opacity="1" stop-color="rgb(3.167725%, 3.045654%, 12.246704%)" offset="0.152344"/><stop stop-opacity="1" stop-color="rgb(3.248596%, 3.123474%, 12.561035%)" offset="0.15625"/><stop stop-opacity="1" stop-color="rgb(3.329468%, 3.201294%, 12.875366%)" offset="0.160156"/><stop stop-opacity="1" stop-color="rgb(3.411865%, 3.28064%, 13.189697%)" offset="0.164063"/><stop stop-opacity="1" stop-color="rgb(3.492737%, 3.358459%, 13.504028%)" offset="0.167969"/><stop stop-opacity="1" stop-color="rgb(3.573608%, 3.436279%, 13.818359%)" offset="0.171875"/><stop stop-opacity="1" stop-color="rgb(3.65448%, 3.514099%, 14.131165%)" offset="0.175781"/><stop stop-opacity="1" stop-color="rgb(3.736877%, 3.593445%, 14.445496%)" offset="0.179688"/><stop stop-opacity="1" stop-color="rgb(3.817749%, 3.671265%, 14.759827%)" offset="0.183594"/><stop stop-opacity="1" stop-color="rgb(3.898621%, 3.749084%, 15.074158%)" offset="0.1875"/><stop stop-opacity="1" stop-color="rgb(3.979492%, 3.826904%, 15.388489%)" offset="0.191406"/><stop stop-opacity="1" stop-color="rgb(4.06189%, 3.904724%, 15.70282%)" offset="0.195312"/><stop stop-opacity="1" stop-color="rgb(4.142761%, 3.982544%, 16.015625%)" offset="0.199219"/><stop stop-opacity="1" stop-color="rgb(4.223633%, 4.06189%, 16.329956%)" offset="0.203125"/><stop stop-opacity="1" stop-color="rgb(4.304504%, 4.139709%, 16.644287%)" offset="0.207031"/><stop stop-opacity="1" stop-color="rgb(4.386902%, 4.217529%, 16.958618%)" offset="0.210938"/><stop stop-opacity="1" stop-color="rgb(4.467773%, 4.295349%, 17.272949%)" offset="0.214844"/><stop stop-opacity="1" stop-color="rgb(4.548645%, 4.374695%, 17.58728%)" offset="0.21875"/><stop stop-opacity="1" stop-color="rgb(4.629517%, 4.452515%, 17.900085%)" offset="0.222656"/><stop stop-opacity="1" stop-color="rgb(4.711914%, 4.530334%, 18.214417%)" offset="0.226562"/><stop stop-opacity="1" stop-color="rgb(4.792786%, 4.608154%, 18.528748%)" offset="0.230469"/><stop stop-opacity="1" stop-color="rgb(4.873657%, 4.685974%, 18.843079%)" offset="0.234375"/><stop stop-opacity="1" stop-color="rgb(4.954529%, 4.763794%, 19.15741%)" offset="0.238281"/><stop stop-opacity="1" stop-color="rgb(5.036926%, 4.84314%, 19.471741%)" offset="0.242188"/><stop stop-opacity="1" stop-color="rgb(5.117798%, 4.920959%, 19.784546%)" offset="0.246094"/><stop stop-opacity="1" stop-color="rgb(5.198669%, 4.998779%, 20.098877%)" offset="0.25"/><stop stop-opacity="1" stop-color="rgb(5.279541%, 5.076599%, 20.413208%)" offset="0.253906"/><stop stop-opacity="1" stop-color="rgb(5.361938%, 5.155945%, 20.727539%)" offset="0.257812"/><stop stop-opacity="1" stop-color="rgb(5.44281%, 5.233765%, 21.04187%)" offset="0.261719"/><stop stop-opacity="1" stop-color="rgb(5.523682%, 5.311584%, 21.356201%)" offset="0.265625"/><stop stop-opacity="1" stop-color="rgb(5.604553%, 5.389404%, 21.669006%)" offset="0.269531"/><stop stop-opacity="1" stop-color="rgb(5.686951%, 5.467224%, 21.983337%)" offset="0.273438"/><stop stop-opacity="1" stop-color="rgb(5.767822%, 5.545044%, 22.297668%)" offset="0.277344"/><stop stop-opacity="1" stop-color="rgb(5.848694%, 5.62439%, 22.612%)" offset="0.28125"/><stop stop-opacity="1" stop-color="rgb(5.929565%, 5.702209%, 22.924805%)" offset="0.285156"/><stop stop-opacity="1" stop-color="rgb(6.011963%, 5.780029%, 23.239136%)" offset="0.289062"/><stop stop-opacity="1" stop-color="rgb(6.092834%, 5.857849%, 23.553467%)" offset="0.292969"/><stop stop-opacity="1" stop-color="rgb(6.173706%, 5.937195%, 23.867798%)" offset="0.296875"/><stop stop-opacity="1" stop-color="rgb(6.254578%, 6.015015%, 24.182129%)" offset="0.300781"/><stop stop-opacity="1" stop-color="rgb(6.336975%, 6.092834%, 24.49646%)" offset="0.304688"/><stop stop-opacity="1" stop-color="rgb(6.417847%, 6.170654%, 24.809265%)" offset="0.308594"/><stop stop-opacity="1" stop-color="rgb(6.498718%, 6.248474%, 25.123596%)" offset="0.3125"/><stop stop-opacity="1" stop-color="rgb(6.57959%, 6.326294%, 25.437927%)" offset="0.316406"/><stop stop-opacity="1" stop-color="rgb(6.661987%, 6.40564%, 25.752258%)" offset="0.320312"/><stop stop-opacity="1" stop-color="rgb(6.742859%, 6.483459%, 26.066589%)" offset="0.324219"/><stop stop-opacity="1" stop-color="rgb(6.82373%, 6.561279%, 26.38092%)" offset="0.328125"/><stop stop-opacity="1" stop-color="rgb(6.904602%, 6.639099%, 26.693726%)" offset="0.332031"/><stop stop-opacity="1" stop-color="rgb(6.987%, 6.718445%, 27.008057%)" offset="0.335938"/><stop stop-opacity="1" stop-color="rgb(7.067871%, 6.796265%, 27.322388%)" offset="0.339844"/><stop stop-opacity="1" stop-color="rgb(7.148743%, 6.874084%, 27.636719%)" offset="0.34375"/><stop stop-opacity="1" stop-color="rgb(7.229614%, 6.951904%, 27.95105%)" offset="0.347656"/><stop stop-opacity="1" stop-color="rgb(7.312012%, 7.029724%, 28.265381%)" offset="0.351563"/><stop stop-opacity="1" stop-color="rgb(7.392883%, 7.107544%, 28.578186%)" offset="0.355469"/><stop stop-opacity="1" stop-color="rgb(7.473755%, 7.18689%, 28.892517%)" offset="0.359375"/><stop stop-opacity="1" stop-color="rgb(7.554626%, 7.264709%, 29.206848%)" offset="0.363281"/><stop stop-opacity="1" stop-color="rgb(7.637024%, 7.342529%, 29.521179%)" offset="0.367188"/><stop stop-opacity="1" stop-color="rgb(7.717896%, 7.420349%, 29.83551%)" offset="0.371094"/><stop stop-opacity="1" stop-color="rgb(7.798767%, 7.499695%, 30.149841%)" offset="0.375"/><stop stop-opacity="1" stop-color="rgb(7.879639%, 7.577515%, 30.462646%)" offset="0.378906"/><stop stop-opacity="1" stop-color="rgb(7.962036%, 7.655334%, 30.776978%)" offset="0.382812"/><stop stop-opacity="1" stop-color="rgb(8.042908%, 7.733154%, 31.091309%)" offset="0.386719"/><stop stop-opacity="1" stop-color="rgb(8.123779%, 7.810974%, 31.40564%)" offset="0.390625"/><stop stop-opacity="1" stop-color="rgb(8.204651%, 7.888794%, 31.719971%)" offset="0.394531"/><stop stop-opacity="1" stop-color="rgb(8.287048%, 7.96814%, 32.034302%)" offset="0.398438"/><stop stop-opacity="1" stop-color="rgb(8.36792%, 8.045959%, 32.347107%)" offset="0.402344"/><stop stop-opacity="1" stop-color="rgb(8.448792%, 8.123779%, 32.661438%)" offset="0.40625"/><stop stop-opacity="1" stop-color="rgb(8.529663%, 8.201599%, 32.975769%)" offset="0.410156"/><stop stop-opacity="1" stop-color="rgb(8.612061%, 8.280945%, 33.2901%)" offset="0.414062"/><stop stop-opacity="1" stop-color="rgb(8.692932%, 8.358765%, 33.602905%)" offset="0.417969"/><stop stop-opacity="1" stop-color="rgb(8.773804%, 8.436584%, 33.917236%)" offset="0.421875"/><stop stop-opacity="1" stop-color="rgb(8.854675%, 8.514404%, 34.231567%)" offset="0.425781"/><stop stop-opacity="1" stop-color="rgb(8.937073%, 8.592224%, 34.545898%)" offset="0.429688"/><stop stop-opacity="1" stop-color="rgb(9.017944%, 8.670044%, 34.860229%)" offset="0.433594"/><stop stop-opacity="1" stop-color="rgb(9.098816%, 8.74939%, 35.174561%)" offset="0.4375"/><stop stop-opacity="1" stop-color="rgb(9.179688%, 8.827209%, 35.487366%)" offset="0.441406"/><stop stop-opacity="1" stop-color="rgb(9.262085%, 8.905029%, 35.801697%)" offset="0.445312"/><stop stop-opacity="1" stop-color="rgb(9.342957%, 8.982849%, 36.116028%)" offset="0.449219"/><stop stop-opacity="1" stop-color="rgb(9.423828%, 9.062195%, 36.430359%)" offset="0.453125"/><stop stop-opacity="1" stop-color="rgb(9.5047%, 9.140015%, 36.74469%)" offset="0.457031"/><stop stop-opacity="1" stop-color="rgb(9.587097%, 9.217834%, 37.059021%)" offset="0.460938"/><stop stop-opacity="1" stop-color="rgb(9.667969%, 9.295654%, 37.371826%)" offset="0.464844"/><stop stop-opacity="1" stop-color="rgb(9.74884%, 9.373474%, 37.686157%)" offset="0.46875"/><stop stop-opacity="1" stop-color="rgb(9.829712%, 9.451294%, 38.000488%)" offset="0.472656"/><stop stop-opacity="1" stop-color="rgb(9.912109%, 9.53064%, 38.314819%)" offset="0.476563"/><stop stop-opacity="1" stop-color="rgb(9.992981%, 9.608459%, 38.62915%)" offset="0.480469"/><stop stop-opacity="1" stop-color="rgb(10.073853%, 9.686279%, 38.943481%)" offset="0.484375"/><stop stop-opacity="1" stop-color="rgb(10.154724%, 9.764099%, 39.256287%)" offset="0.488281"/><stop stop-opacity="1" stop-color="rgb(10.237122%, 9.843445%, 39.570618%)" offset="0.492188"/><stop stop-opacity="1" stop-color="rgb(10.317993%, 9.921265%, 39.884949%)" offset="0.496094"/><stop stop-opacity="1" stop-color="rgb(10.398865%, 9.999084%, 40.19928%)" offset="0.5"/><stop stop-opacity="1" stop-color="rgb(10.479736%, 10.076904%, 40.513611%)" offset="0.503906"/><stop stop-opacity="1" stop-color="rgb(10.562134%, 10.154724%, 40.827942%)" offset="0.507812"/><stop stop-opacity="1" stop-color="rgb(10.643005%, 10.232544%, 41.140747%)" offset="0.511719"/><stop stop-opacity="1" stop-color="rgb(10.723877%, 10.31189%, 41.455078%)" offset="0.515625"/><stop stop-opacity="1" stop-color="rgb(10.804749%, 10.389709%, 41.769409%)" offset="0.519531"/><stop stop-opacity="1" stop-color="rgb(10.887146%, 10.467529%, 42.08374%)" offset="0.523437"/><stop stop-opacity="1" stop-color="rgb(10.968018%, 10.545349%, 42.398071%)" offset="0.527344"/><stop stop-opacity="1" stop-color="rgb(11.048889%, 10.624695%, 42.712402%)" offset="0.53125"/><stop stop-opacity="1" stop-color="rgb(11.129761%, 10.702515%, 43.025208%)" offset="0.535156"/><stop stop-opacity="1" stop-color="rgb(11.212158%, 10.780334%, 43.339539%)" offset="0.539062"/><stop stop-opacity="1" stop-color="rgb(11.29303%, 10.858154%, 43.65387%)" offset="0.542969"/><stop stop-opacity="1" stop-color="rgb(11.373901%, 10.935974%, 43.968201%)" offset="0.546875"/><stop stop-opacity="1" stop-color="rgb(11.454773%, 11.013794%, 44.282532%)" offset="0.550781"/><stop stop-opacity="1" stop-color="rgb(11.53717%, 11.09314%, 44.596863%)" offset="0.554687"/><stop stop-opacity="1" stop-color="rgb(11.618042%, 11.170959%, 44.909668%)" offset="0.558594"/><stop stop-opacity="1" stop-color="rgb(11.698914%, 11.248779%, 45.223999%)" offset="0.5625"/><stop stop-opacity="1" stop-color="rgb(11.779785%, 11.326599%, 45.53833%)" offset="0.566406"/><stop stop-opacity="1" stop-color="rgb(11.862183%, 11.405945%, 45.852661%)" offset="0.570312"/><stop stop-opacity="1" stop-color="rgb(11.943054%, 11.483765%, 46.165466%)" offset="0.574219"/><stop stop-opacity="1" stop-color="rgb(12.023926%, 11.561584%, 46.479797%)" offset="0.578125"/><stop stop-opacity="1" stop-color="rgb(12.104797%, 11.639404%, 46.794128%)" offset="0.582031"/><stop stop-opacity="1" stop-color="rgb(12.187195%, 11.717224%, 47.108459%)" offset="0.585938"/><stop stop-opacity="1" stop-color="rgb(12.268066%, 11.795044%, 47.422791%)" offset="0.589844"/><stop stop-opacity="1" stop-color="rgb(12.348938%, 11.87439%, 47.737122%)" offset="0.59375"/><stop stop-opacity="1" stop-color="rgb(12.42981%, 11.952209%, 48.049927%)" offset="0.597656"/><stop stop-opacity="1" stop-color="rgb(12.512207%, 12.030029%, 48.364258%)" offset="0.601563"/><stop stop-opacity="1" stop-color="rgb(12.593079%, 12.107849%, 48.678589%)" offset="0.605469"/><stop stop-opacity="1" stop-color="rgb(12.67395%, 12.187195%, 48.99292%)" offset="0.609375"/><stop stop-opacity="1" stop-color="rgb(12.754822%, 12.265015%, 49.307251%)" offset="0.613281"/><stop stop-opacity="1" stop-color="rgb(12.837219%, 12.342834%, 49.621582%)" offset="0.617188"/><stop stop-opacity="1" stop-color="rgb(12.918091%, 12.420654%, 49.934387%)" offset="0.621094"/><stop stop-opacity="1" stop-color="rgb(12.998962%, 12.498474%, 50.248718%)" offset="0.625"/><stop stop-opacity="1" stop-color="rgb(13.079834%, 12.576294%, 50.563049%)" offset="0.628906"/><stop stop-opacity="1" stop-color="rgb(13.162231%, 12.65564%, 50.87738%)" offset="0.632813"/><stop stop-opacity="1" stop-color="rgb(13.243103%, 12.733459%, 51.191711%)" offset="0.636719"/><stop stop-opacity="1" stop-color="rgb(13.323975%, 12.811279%, 51.506042%)" offset="0.640625"/><stop stop-opacity="1" stop-color="rgb(13.404846%, 12.889099%, 51.818848%)" offset="0.644531"/><stop stop-opacity="1" stop-color="rgb(13.487244%, 12.968445%, 52.133179%)" offset="0.648438"/><stop stop-opacity="1" stop-color="rgb(13.568115%, 13.046265%, 52.44751%)" offset="0.652344"/><stop stop-opacity="1" stop-color="rgb(13.648987%, 13.124084%, 52.761841%)" offset="0.65625"/><stop stop-opacity="1" stop-color="rgb(13.729858%, 13.201904%, 53.076172%)" offset="0.660156"/><stop stop-opacity="1" stop-color="rgb(13.812256%, 13.279724%, 53.390503%)" offset="0.664063"/><stop stop-opacity="1" stop-color="rgb(13.893127%, 13.357544%, 53.703308%)" offset="0.667969"/><stop stop-opacity="1" stop-color="rgb(13.973999%, 13.43689%, 54.017639%)" offset="0.671875"/><stop stop-opacity="1" stop-color="rgb(14.054871%, 13.514709%, 54.33197%)" offset="0.675781"/><stop stop-opacity="1" stop-color="rgb(14.137268%, 13.592529%, 54.646301%)" offset="0.679688"/><stop stop-opacity="1" stop-color="rgb(14.21814%, 13.670349%, 54.960632%)" offset="0.683594"/><stop stop-opacity="1" stop-color="rgb(14.299011%, 13.749695%, 55.274963%)" offset="0.6875"/><stop stop-opacity="1" stop-color="rgb(14.379883%, 13.827515%, 55.587769%)" offset="0.691406"/><stop stop-opacity="1" stop-color="rgb(14.46228%, 13.905334%, 55.9021%)" offset="0.695313"/><stop stop-opacity="1" stop-color="rgb(14.543152%, 13.983154%, 56.216431%)" offset="0.699219"/><stop stop-opacity="1" stop-color="rgb(14.624023%, 14.060974%, 56.530762%)" offset="0.703125"/><stop stop-opacity="1" stop-color="rgb(14.704895%, 14.138794%, 56.843567%)" offset="0.707031"/><stop stop-opacity="1" stop-color="rgb(14.787292%, 14.21814%, 57.157898%)" offset="0.710938"/><stop stop-opacity="1" stop-color="rgb(14.868164%, 14.295959%, 57.472229%)" offset="0.714844"/><stop stop-opacity="1" stop-color="rgb(14.949036%, 14.373779%, 57.78656%)" offset="0.71875"/><stop stop-opacity="1" stop-color="rgb(15.029907%, 14.451599%, 58.100891%)" offset="0.722656"/><stop stop-opacity="1" stop-color="rgb(15.112305%, 14.530945%, 58.415222%)" offset="0.726563"/><stop stop-opacity="1" stop-color="rgb(15.193176%, 14.608765%, 58.728027%)" offset="0.730469"/><stop stop-opacity="1" stop-color="rgb(15.274048%, 14.686584%, 59.042358%)" offset="0.734375"/><stop stop-opacity="1" stop-color="rgb(15.354919%, 14.764404%, 59.356689%)" offset="0.738281"/><stop stop-opacity="1" stop-color="rgb(15.437317%, 14.842224%, 59.671021%)" offset="0.742188"/><stop stop-opacity="1" stop-color="rgb(15.518188%, 14.920044%, 59.985352%)" offset="0.746094"/><stop stop-opacity="1" stop-color="rgb(15.59906%, 14.99939%, 60.299683%)" offset="0.75"/><stop stop-opacity="1" stop-color="rgb(15.679932%, 15.077209%, 60.612488%)" offset="0.753906"/><stop stop-opacity="1" stop-color="rgb(15.762329%, 15.155029%, 60.926819%)" offset="0.757812"/><stop stop-opacity="1" stop-color="rgb(15.843201%, 15.232849%, 61.24115%)" offset="0.761719"/><stop stop-opacity="1" stop-color="rgb(15.924072%, 15.312195%, 61.555481%)" offset="0.765625"/><stop stop-opacity="1" stop-color="rgb(16.004944%, 15.390015%, 61.869812%)" offset="0.769531"/><stop stop-opacity="1" stop-color="rgb(16.087341%, 15.467834%, 62.184143%)" offset="0.773438"/><stop stop-opacity="1" stop-color="rgb(16.168213%, 15.545654%, 62.496948%)" offset="0.777344"/><stop stop-opacity="1" stop-color="rgb(16.249084%, 15.623474%, 62.811279%)" offset="0.78125"/><stop stop-opacity="1" stop-color="rgb(16.329956%, 15.701294%, 63.12561%)" offset="0.785156"/><stop stop-opacity="1" stop-color="rgb(16.412354%, 15.78064%, 63.439941%)" offset="0.789062"/><stop stop-opacity="1" stop-color="rgb(16.493225%, 15.858459%, 63.754272%)" offset="0.792969"/><stop stop-opacity="1" stop-color="rgb(16.574097%, 15.936279%, 64.068604%)" offset="0.796875"/><stop stop-opacity="1" stop-color="rgb(16.654968%, 16.014099%, 64.381409%)" offset="0.800781"/><stop stop-opacity="1" stop-color="rgb(16.737366%, 16.093445%, 64.69574%)" offset="0.804687"/><stop stop-opacity="1" stop-color="rgb(16.818237%, 16.171265%, 65.010071%)" offset="0.808594"/><stop stop-opacity="1" stop-color="rgb(16.899109%, 16.249084%, 65.324402%)" offset="0.8125"/><stop stop-opacity="1" stop-color="rgb(16.97998%, 16.326904%, 65.638733%)" offset="0.816406"/><stop stop-opacity="1" stop-color="rgb(17.062378%, 16.404724%, 65.953064%)" offset="0.820312"/><stop stop-opacity="1" stop-color="rgb(17.14325%, 16.482544%, 66.265869%)" offset="0.824219"/><stop stop-opacity="1" stop-color="rgb(17.224121%, 16.56189%, 66.5802%)" offset="0.828125"/><stop stop-opacity="1" stop-color="rgb(17.304993%, 16.639709%, 66.894531%)" offset="0.832031"/><stop stop-opacity="1" stop-color="rgb(17.38739%, 16.717529%, 67.208862%)" offset="0.835937"/><stop stop-opacity="1" stop-color="rgb(17.468262%, 16.795349%, 67.521667%)" offset="0.839844"/><stop stop-opacity="1" stop-color="rgb(17.549133%, 16.874695%, 67.835999%)" offset="0.84375"/><stop stop-opacity="1" stop-color="rgb(17.630005%, 16.952515%, 68.15033%)" offset="0.847656"/><stop stop-opacity="1" stop-color="rgb(17.712402%, 17.030334%, 68.464661%)" offset="0.851562"/><stop stop-opacity="1" stop-color="rgb(17.793274%, 17.108154%, 68.778992%)" offset="0.855469"/><stop stop-opacity="1" stop-color="rgb(17.874146%, 17.185974%, 69.093323%)" offset="0.859375"/><stop stop-opacity="1" stop-color="rgb(17.955017%, 17.263794%, 69.406128%)" offset="0.863281"/><stop stop-opacity="1" stop-color="rgb(18.037415%, 17.34314%, 69.720459%)" offset="0.867188"/><stop stop-opacity="1" stop-color="rgb(18.118286%, 17.420959%, 70.03479%)" offset="0.871094"/><stop stop-opacity="1" stop-color="rgb(18.199158%, 17.498779%, 70.349121%)" offset="0.875"/><stop stop-opacity="1" stop-color="rgb(18.280029%, 17.576599%, 70.663452%)" offset="0.878906"/><stop stop-opacity="1" stop-color="rgb(18.362427%, 17.655945%, 70.977783%)" offset="0.882813"/><stop stop-opacity="1" stop-color="rgb(18.443298%, 17.733765%, 71.290588%)" offset="0.886719"/><stop stop-opacity="1" stop-color="rgb(18.52417%, 17.811584%, 71.604919%)" offset="0.890625"/><stop stop-opacity="1" stop-color="rgb(18.605042%, 17.889404%, 71.91925%)" offset="0.894531"/><stop stop-opacity="1" stop-color="rgb(18.687439%, 17.967224%, 72.233582%)" offset="0.898438"/><stop stop-opacity="1" stop-color="rgb(18.768311%, 18.045044%, 72.547913%)" offset="0.902344"/><stop stop-opacity="1" stop-color="rgb(18.849182%, 18.12439%, 72.862244%)" offset="0.90625"/><stop stop-opacity="1" stop-color="rgb(18.930054%, 18.202209%, 73.175049%)" offset="0.910156"/><stop stop-opacity="1" stop-color="rgb(19.012451%, 18.280029%, 73.48938%)" offset="0.914063"/><stop stop-opacity="1" stop-color="rgb(19.093323%, 18.357849%, 73.803711%)" offset="0.917969"/><stop stop-opacity="1" stop-color="rgb(19.174194%, 18.437195%, 74.118042%)" offset="0.921875"/><stop stop-opacity="1" stop-color="rgb(19.255066%, 18.515015%, 74.432373%)" offset="0.925781"/><stop stop-opacity="1" stop-color="rgb(19.337463%, 18.592834%, 74.746704%)" offset="0.929688"/><stop stop-opacity="1" stop-color="rgb(19.418335%, 18.670654%, 75.059509%)" offset="0.933594"/><stop stop-opacity="1" stop-color="rgb(19.499207%, 18.748474%, 75.37384%)" offset="0.9375"/><stop stop-opacity="1" stop-color="rgb(19.580078%, 18.826294%, 75.688171%)" offset="0.941406"/><stop stop-opacity="1" stop-color="rgb(19.662476%, 18.90564%, 76.002502%)" offset="0.945313"/><stop stop-opacity="1" stop-color="rgb(19.743347%, 18.983459%, 76.316833%)" offset="0.949219"/><stop stop-opacity="1" stop-color="rgb(19.824219%, 19.061279%, 76.631165%)" offset="0.953125"/><stop stop-opacity="1" stop-color="rgb(19.90509%, 19.139099%, 76.94397%)" offset="0.957031"/><stop stop-opacity="1" stop-color="rgb(19.987488%, 19.218445%, 77.258301%)" offset="0.960938"/><stop stop-opacity="1" stop-color="rgb(20.068359%, 19.296265%, 77.572632%)" offset="0.964844"/><stop stop-opacity="1" stop-color="rgb(20.149231%, 19.374084%, 77.886963%)" offset="0.96875"/><stop stop-opacity="1" stop-color="rgb(20.230103%, 19.451904%, 78.199768%)" offset="0.972656"/><stop stop-opacity="1" stop-color="rgb(20.310974%, 19.529724%, 78.514099%)" offset="0.976562"/><stop stop-opacity="1" stop-color="rgb(20.391846%, 19.607544%, 78.82843%)" offset="0.980469"/><stop stop-opacity="1" stop-color="rgb(20.474243%, 19.68689%, 79.142761%)" offset="0.984375"/><stop stop-opacity="1" stop-color="rgb(20.555115%, 19.764709%, 79.457092%)" offset="0.988281"/><stop stop-opacity="1" stop-color="rgb(20.635986%, 19.842529%, 79.771423%)" offset="0.992188"/><stop stop-opacity="1" stop-color="rgb(20.716858%, 19.920349%, 80.084229%)" offset="0.996094"/><stop stop-opacity="1" stop-color="rgb(20.799255%, 19.999695%, 80.39856%)" offset="1"/></linearGradient><clipPath id="6fe99689d0"><path d="M 12 5.601562 L 21.210938 5.601562 L 21.210938 22.476562 L 12 22.476562 Z M 12 5.601562 " clip-rule="nonzero"/></clipPath><clipPath id="9b6fc468b4"><path d="M 3.210938 5.601562 L 12 5.601562 L 12 22.476562 L 3.210938 22.476562 Z M 3.210938 5.601562 " clip-rule="nonzero"/></clipPath></defs><g clip-path="url(#00f6e88034)"><g clip-path="url(#6019b7b690)"><path fill="url(#b86181ee20)" d="M 1.089844 2.921875 L 1.089844 25.195312 L 23.363281 25.195312 L 23.363281 2.921875 Z M 1.089844 2.921875 " fill-rule="nonzero"/></g></g><g clip-path="url(#6fe99689d0)"><path fill="#ffffff" d="M 16.230469 6.511719 C 15.898438 5.96875 15.242188 5.605469 14.5625 5.605469 C 13.527344 5.605469 12.679688 6.453125 12.679688 7.484375 C 12.679688 11.855469 12.679688 16.226562 12.679688 20.59375 C 12.679688 21.628906 13.527344 22.472656 14.5625 22.472656 C 15.539062 22.472656 16.351562 21.714844 16.4375 20.753906 C 16.613281 20.800781 16.734375 20.804688 16.734375 20.804688 C 16.867188 20.832031 17.007812 20.847656 17.148438 20.847656 C 18.34375 20.847656 19.3125 19.878906 19.3125 18.679688 C 19.3125 18.46875 19.285156 18.265625 19.226562 18.078125 C 20.398438 17.554688 21.210938 16.566406 21.210938 15.207031 C 21.210938 14.460938 20.945312 13.78125 20.503906 13.253906 C 20.707031 12.867188 20.839844 12.429688 20.839844 11.992188 C 20.839844 10.71875 19.804688 9.683594 18.53125 9.683594 C 18.484375 9.683594 18.433594 9.6875 18.386719 9.6875 C 18.496094 9.421875 18.558594 9.128906 18.558594 8.820312 C 18.558594 7.507812 17.527344 6.46875 16.230469 6.511719 Z M 14.910156 13.777344 C 15.386719 13.777344 15.773438 14.164062 15.773438 14.636719 C 15.773438 15.113281 15.386719 15.5 14.910156 15.5 C 14.597656 15.5 14.328125 15.335938 14.175781 15.089844 C 13.261719 15.53125 13.191406 17.097656 13.1875 17.421875 L 13.1875 20.59375 C 13.1875 21.347656 13.808594 21.964844 14.5625 21.964844 C 15.277344 21.964844 15.878906 21.40625 15.929688 20.691406 L 15.9375 20.566406 C 15.585938 20.382812 15.1875 20.054688 14.917969 19.472656 L 14.914062 19.472656 C 14.4375 19.472656 14.054688 19.089844 14.054688 18.613281 C 14.054688 18.136719 14.4375 17.753906 14.914062 17.753906 C 15.390625 17.753906 15.773438 18.136719 15.773438 18.613281 C 15.773438 18.855469 15.671875 19.074219 15.511719 19.230469 C 16.335938 20.980469 18.804688 20.542969 18.804688 18.679688 C 18.804688 18.539062 18.785156 18.394531 18.75 18.257812 C 18.367188 18.378906 18.0625 18.417969 17.519531 18.402344 C 17.371094 18.664062 17.09375 18.839844 16.769531 18.839844 C 16.296875 18.839844 15.910156 18.457031 15.910156 17.980469 C 15.910156 17.507812 16.292969 17.121094 16.769531 17.121094 C 17.1875 17.121094 17.53125 17.414062 17.613281 17.808594 C 18.535156 17.847656 19.414062 17.40625 19.460938 17.382812 C 20.222656 16.929688 20.703125 16.109375 20.703125 15.203125 C 20.703125 14.660156 20.53125 14.140625 20.210938 13.707031 C 19.929688 14.078125 19.507812 14.464844 18.894531 14.65625 C 18.804688 15.035156 18.464844 15.316406 18.058594 15.316406 C 17.582031 15.316406 17.199219 14.929688 17.199219 14.457031 C 17.199219 13.980469 17.582031 13.597656 18.058594 13.597656 C 18.367188 13.597656 18.632812 13.757812 18.785156 14 C 19.785156 13.605469 20.207031 12.648438 20.222656 12.613281 C 20.292969 12.417969 20.332031 12.203125 20.332031 11.992188 C 20.332031 10.996094 19.527344 10.191406 18.53125 10.191406 C 18.496094 10.191406 18.457031 10.191406 18.417969 10.195312 L 18.292969 10.203125 C 18.066406 10.695312 17.503906 11.386719 16.402344 11.910156 C 16.40625 11.949219 16.40625 11.984375 16.40625 12.019531 C 16.40625 12.496094 16.023438 12.878906 15.546875 12.878906 C 15.070312 12.878906 14.6875 12.496094 14.6875 12.019531 C 14.6875 11.546875 15.070312 11.160156 15.546875 11.160156 C 15.761719 11.160156 15.957031 11.238281 16.105469 11.367188 C 17.054688 10.992188 18.050781 9.898438 18.050781 8.820312 C 18.050781 7.847656 17.277344 7.054688 16.3125 7.019531 C 16.300781 7.421875 16.128906 8.121094 15.726562 8.574219 C 15.792969 8.695312 15.832031 8.835938 15.832031 8.984375 C 15.832031 9.460938 15.445312 9.84375 14.972656 9.84375 C 14.496094 9.84375 14.109375 9.460938 14.109375 8.984375 C 14.109375 8.511719 14.496094 8.125 14.972656 8.125 C 15.050781 8.125 15.128906 8.136719 15.203125 8.15625 C 15.636719 7.605469 15.941406 6.84375 15.40625 6.414062 C 15.171875 6.222656 14.871094 6.117188 14.5625 6.113281 C 13.808594 6.101562 13.1875 6.730469 13.1875 7.484375 L 13.1875 15.25 C 13.390625 14.953125 13.671875 14.703125 14.054688 14.5625 C 14.09375 14.121094 14.460938 13.777344 14.910156 13.777344 Z M 14.910156 13.777344 " fill-opacity="1" fill-rule="evenodd"/></g><g clip-path="url(#9b6fc468b4)"><path fill="#ffffff" d="M 8.445312 6.25 C 8.792969 5.855469 9.296875 5.605469 9.859375 5.605469 C 10.894531 5.605469 11.738281 6.453125 11.738281 7.484375 L 11.738281 20.59375 C 11.738281 21.628906 10.894531 22.472656 9.859375 22.472656 C 8.992188 22.472656 8.253906 21.875 8.039062 21.070312 C 8.207031 20.738281 8.425781 20.386719 8.710938 20.066406 C 8.726562 20.054688 8.738281 20.042969 8.746094 20.03125 C 9.023438 19.730469 9.355469 19.46875 9.757812 19.292969 C 9.867188 19.246094 9.917969 19.121094 9.871094 19.011719 C 9.824219 18.902344 9.699219 18.855469 9.589844 18.902344 C 9.238281 19.054688 8.933594 19.261719 8.671875 19.503906 C 8.332031 18.105469 9.253906 17.074219 10.019531 16.214844 C 10.308594 15.886719 10.582031 15.585938 10.769531 15.28125 C 11.550781 14.015625 10.390625 12.464844 10.386719 12.457031 C 10.320312 12.363281 10.183594 12.34375 10.089844 12.414062 C 9.996094 12.484375 9.972656 12.617188 10.042969 12.710938 C 10.046875 12.714844 11.03125 14.039062 10.40625 15.054688 C 10.238281 15.324219 9.976562 15.613281 9.699219 15.929688 C 8.816406 16.914062 7.746094 18.117188 8.328125 19.859375 C 8.070312 20.164062 7.863281 20.492188 7.699219 20.804688 C 7.5625 20.832031 7.421875 20.84375 7.273438 20.84375 C 6.078125 20.84375 5.109375 19.875 5.109375 18.679688 C 5.109375 18.480469 5.136719 18.289062 5.183594 18.109375 C 5.492188 17.898438 5.847656 17.6875 6.25 17.519531 C 6.265625 17.515625 6.285156 17.507812 6.300781 17.5 C 6.75 17.316406 7.242188 17.1875 7.773438 17.164062 C 7.894531 17.15625 7.984375 17.054688 7.980469 16.941406 C 7.972656 16.820312 7.875 16.730469 7.753906 16.734375 C 7.300781 16.753906 6.867188 16.847656 6.472656 16.980469 C 6.621094 16.410156 7.113281 15.316406 8.734375 15.113281 C 8.851562 15.097656 8.933594 14.992188 8.917969 14.871094 C 8.902344 14.757812 8.796875 14.675781 8.679688 14.6875 C 6.484375 14.964844 6.070312 16.675781 5.996094 17.167969 C 5.53125 17.371094 5.125 17.621094 4.789062 17.867188 C 3.847656 17.351562 3.210938 16.351562 3.210938 15.207031 C 3.210938 14.605469 3.382812 14.042969 3.683594 13.570312 C 3.914062 13.460938 4.222656 13.355469 4.578125 13.324219 C 4.535156 13.785156 4.554688 14.746094 5.304688 15.496094 C 5.386719 15.578125 5.523438 15.578125 5.609375 15.496094 C 5.691406 15.414062 5.691406 15.277344 5.609375 15.195312 C 4.953125 14.535156 4.964844 13.6875 5.003906 13.328125 C 5.199219 13.34375 5.402344 13.382812 5.609375 13.460938 C 5.722656 13.5 5.84375 13.4375 5.882812 13.328125 C 5.921875 13.214844 5.863281 13.09375 5.753906 13.054688 C 5.429688 12.941406 5.121094 12.890625 4.835938 12.886719 C 4.828125 12.886719 4.824219 12.886719 4.816406 12.886719 C 4.445312 12.886719 4.113281 12.957031 3.835938 13.054688 C 3.671875 12.734375 3.582031 12.375 3.582031 11.992188 C 3.582031 10.78125 4.515625 9.789062 5.703125 9.695312 C 6.132812 10.121094 6.800781 10.503906 7.804688 10.398438 C 7.921875 10.386719 8.007812 10.28125 7.996094 10.164062 C 7.984375 10.046875 7.875 9.960938 7.757812 9.972656 C 6.847656 10.066406 6.261719 9.679688 5.910156 9.292969 C 5.878906 9.136719 5.863281 8.980469 5.863281 8.820312 C 5.863281 7.59375 6.820312 6.589844 8.03125 6.515625 C 8.070312 6.914062 8.144531 7.273438 8.242188 7.601562 C 7.871094 7.6875 7.207031 7.953125 6.753906 8.753906 C 6.699219 8.859375 6.734375 8.988281 6.839844 9.046875 C 6.941406 9.105469 7.070312 9.066406 7.128906 8.964844 C 7.527344 8.261719 8.101562 8.0625 8.375 8.007812 C 8.519531 8.398438 8.683594 8.746094 8.839844 9.074219 C 8.945312 9.300781 9.046875 9.515625 9.132812 9.71875 C 9.371094 10.296875 9.511719 10.832031 9.417969 11.316406 C 8.949219 11.308594 7.679688 11.378906 6.910156 12.199219 C 6.679688 12.152344 6.113281 11.960938 5.671875 11.082031 C 5.621094 10.972656 5.492188 10.929688 5.386719 10.984375 C 5.28125 11.039062 5.238281 11.164062 5.289062 11.269531 C 5.714844 12.121094 6.273438 12.441406 6.636719 12.5625 C 6.394531 12.96875 6.261719 13.503906 6.308594 14.210938 C 6.316406 14.328125 6.417969 14.417969 6.535156 14.410156 C 6.65625 14.402344 6.742188 14.300781 6.734375 14.183594 C 6.589844 12.023438 8.507812 11.761719 9.269531 11.746094 C 9.050781 12.148438 8.625 12.535156 7.902344 12.914062 C 7.796875 12.96875 7.753906 13.097656 7.808594 13.203125 C 7.863281 13.308594 7.992188 13.351562 8.101562 13.292969 C 9.09375 12.773438 9.597656 12.21875 9.789062 11.613281 C 9.789062 11.605469 9.792969 11.59375 9.796875 11.585938 C 9.800781 11.574219 9.800781 11.5625 9.804688 11.546875 C 9.980469 10.917969 9.820312 10.261719 9.53125 9.554688 C 9.4375 9.332031 9.335938 9.117188 9.226562 8.894531 C 8.886719 8.175781 8.503906 7.371094 8.445312 6.25 Z M 8.445312 6.25 " fill-opacity="1" fill-rule="evenodd"/></g><g fill="#002a80" fill-opacity="1"><g transform="translate(27.198404, 17.19109)"><g><path d="M 4 0.136719 C 5.816406 0.136719 7.230469 -0.96875 7.574219 -2.648438 L 5.957031 -2.648438 C 5.667969 -1.855469 4.9375 -1.351562 4.03125 -1.351562 C 2.855469 -1.351562 2.023438 -2.210938 2.023438 -3.457031 C 2.023438 -4.699219 2.863281 -5.558594 4.039062 -5.558594 C 4.917969 -5.558594 5.640625 -5.085938 5.90625 -4.324219 L 7.523438 -4.324219 C 7.128906 -5.984375 5.746094 -7.050781 3.988281 -7.050781 C 1.894531 -7.050781 0.425781 -5.570312 0.425781 -3.457031 C 0.425781 -1.34375 1.894531 0.136719 4 0.136719 Z M 4 0.136719 "/></g></g></g><g fill="#002a80" fill-opacity="1"><g transform="translate(35.167138, 17.19109)"><g><path d="M 0.75 0 L 2.25 0 L 2.25 -2.726562 C 2.25 -3.546875 2.707031 -4.039062 3.398438 -4.039062 C 4.039062 -4.039062 4.425781 -3.605469 4.425781 -2.84375 L 4.425781 0 L 5.925781 0 L 5.925781 -2.992188 C 5.925781 -4.433594 5.117188 -5.324219 3.773438 -5.324219 C 3.191406 -5.324219 2.648438 -5.144531 2.25 -4.789062 L 2.25 -7.308594 L 0.75 -7.308594 Z M 0.75 0 "/></g></g></g><g fill="#002a80" fill-opacity="1"><g transform="translate(41.743566, 17.19109)"><g><path d="M 2.480469 0.0976562 C 3.25 0.0976562 3.882812 -0.148438 4.324219 -0.601562 L 4.492188 0 L 5.609375 0 L 5.609375 -3.121094 C 5.609375 -4.492188 4.679688 -5.324219 3.128906 -5.324219 C 1.808594 -5.324219 0.9375 -4.691406 0.75 -3.566406 L 2.191406 -3.566406 C 2.28125 -3.929688 2.65625 -4.175781 3.140625 -4.175781 C 3.734375 -4.175781 4.136719 -3.839844 4.136719 -3.328125 L 4.136719 -3.089844 L 2.261719 -3.089844 C 1.183594 -3.089844 0.492188 -2.46875 0.492188 -1.511719 C 0.492188 -0.511719 1.253906 0.0976562 2.480469 0.0976562 Z M 1.976562 -1.570312 C 1.976562 -1.925781 2.269531 -2.152344 2.726562 -2.152344 L 4.148438 -2.152344 C 4.117188 -1.453125 3.574219 -0.976562 2.824219 -0.976562 C 2.3125 -0.976562 1.976562 -1.214844 1.976562 -1.570312 Z M 1.976562 -1.570312 "/></g></g></g><g fill="#002a80" fill-opacity="1"><g transform="translate(48.004009, 17.19109)"><g><path d="M 3.25 0 L 4.195312 0 L 4.195312 -1.304688 L 3.574219 -1.304688 C 2.984375 -1.304688 2.707031 -1.589844 2.707031 -2.191406 L 2.707031 -3.960938 L 4.128906 -3.960938 L 4.128906 -5.183594 L 2.707031 -5.183594 L 2.707031 -6.527344 L 1.539062 -6.527344 L 1.453125 -5.855469 C 1.371094 -5.324219 1.222656 -5.183594 0.660156 -5.183594 L 0.199219 -5.183594 L 0.199219 -3.960938 L 1.203125 -3.960938 L 1.203125 -1.964844 C 1.203125 -0.703125 1.9375 0 3.25 0 Z M 3.25 0 "/></g></g></g><g fill="#002a80" fill-opacity="1"><g transform="translate(52.615408, 17.19109)"><g><path d="M 0.828125 0 L 5.480469 0 L 5.480469 -1.332031 L 2.390625 -1.332031 L 2.390625 -2.84375 L 5.105469 -2.84375 L 5.105469 -4.15625 L 2.390625 -4.15625 L 2.390625 -5.589844 L 5.371094 -5.589844 L 5.371094 -6.914062 L 0.828125 -6.914062 Z M 0.828125 0 "/></g></g></g><g fill="#002a80" fill-opacity="1"><g transform="translate(58.599365, 17.19109)"><g><path d="M 2.488281 0 L 4.058594 0 L 4.058594 -5.441406 L 6.25 -5.441406 L 6.25 -6.914062 L 0.296875 -6.914062 L 0.296875 -5.441406 L 2.488281 -5.441406 Z M 2.488281 0 "/></g></g></g><g fill="#002a80" fill-opacity="1"><g transform="translate(65.146168, 17.19109)"><g><path d="M 0.828125 0 L 2.398438 0 L 2.398438 -2.378906 L 4.910156 -2.378906 L 4.910156 -3.761719 L 2.398438 -3.761719 L 2.398438 -5.492188 L 5.164062 -5.492188 L 5.164062 -6.914062 L 0.828125 -6.914062 Z M 0.828125 0 "/></g></g></g></svg>